{
	"asset":{
		"generator":"Khronos glTF Blender I/O v4.2.70",
		"version":"2.0"
	},
	"scene":0,
	"scenes":[
		{
			"name":"Scene",
			"nodes":[
				0,
				1,
				2,
				3,
				4,
				5,
				6,
				7,
				8,
				9,
				10,
				11,
				12,
				13,
				14,
				15,
				16,
				17,
				18,
				19,
				20,
				21,
				22,
				23,
				24,
				25,
				26,
				27,
				28,
				29,
				30,
				31,
				32,
				33,
				34
			]
		}
	],
	"nodes":[
		{
			"mesh":0,
			"name":"Placa_Dir",
			"translation":[
				5.062548637390137,
				0,
				0
			]
		},
		{
			"mesh":1,
			"name":"Placa_Esq",
			"translation":[
				-5.0298871994018555,
				0,
				0
			]
		},
		{
			"name":"B\u00e9zierCircle",
			"scale":[
				0.11125390231609344,
				0.11125390231609344,
				0.11125390231609344
			],
			"translation":[
				10.5986909866333,
				0,
				0
			]
		},
		{
			"name":"B\u00e9zierCircle.001",
			"scale":[
				0.11125390231609344,
				0.11125390231609344,
				0.11125390231609344
			],
			"translation":[
				10.5986909866333,
				0,
				0
			]
		},
		{
			"name":"B\u00e9zierCircle.002",
			"rotation":[
				0,
				-0.7071068286895752,
				0,
				0.7071068286895752
			],
			"scale":[
				0.11125390231609344,
				0.11125390231609344,
				0.11125390231609344
			],
			"translation":[
				-5.381009578704834,
				0,
				12.370588302612305
			]
		},
		{
			"name":"B\u00e9zierCircle.003",
			"rotation":[
				0,
				-0.7071068286895752,
				0,
				0.7071068286895752
			],
			"scale":[
				0.11125390231609344,
				0.11125390231609344,
				0.11125390231609344
			],
			"translation":[
				-5.381009578704834,
				0,
				12.370588302612305
			]
		},
		{
			"name":"B\u00e9zierCircle.004",
			"rotation":[
				0,
				-0.7071068286895752,
				0,
				0.7071068286895752
			],
			"scale":[
				0.11125390231609344,
				0.11125390231609344,
				0.11125390231609344
			],
			"translation":[
				-5.381009578704834,
				0,
				12.370588302612305
			]
		},
		{
			"name":"B\u00e9zierCircle.005",
			"rotation":[
				0,
				-0.7071068286895752,
				0,
				0.7071068286895752
			],
			"scale":[
				0.11125390231609344,
				0.11125390231609344,
				0.11125390231609344
			],
			"translation":[
				-5.2313103675842285,
				0,
				12.370588302612305
			]
		},
		{
			"name":"Fios"
		},
		{
			"name":"Fios.001"
		},
		{
			"name":"Fios.002",
			"rotation":[
				0,
				-0.7071068286895752,
				0,
				0.7071068286895752
			],
			"translation":[
				-5.381009578704834,
				0,
				1.7718982696533203
			]
		},
		{
			"name":"Fios.003",
			"rotation":[
				0,
				-0.7071068286895752,
				0,
				0.7071068286895752
			],
			"translation":[
				-5.381009578704834,
				0,
				1.7718982696533203
			]
		},
		{
			"name":"Fios.004",
			"rotation":[
				0,
				-0.7071068286895752,
				0,
				0.7071068286895752
			],
			"translation":[
				-5.381009578704834,
				0,
				1.7718982696533203
			]
		},
		{
			"name":"Fios.005",
			"rotation":[
				0,
				-0.7071068286895752,
				0,
				0.7071068286895752
			],
			"translation":[
				-5.2313103675842285,
				0,
				1.7718982696533203
			]
		},
		{
			"name":"Fios.006",
			"rotation":[
				0,
				-0.23512130975723267,
				0,
				0.9719661474227905
			],
			"translation":[
				-0.2888922691345215,
				0,
				-0.08198404312133789
			]
		},
		{
			"name":"B\u00e9zierCircle.006",
			"rotation":[
				0,
				-0.23512129485607147,
				0,
				0.9719661474227905
			],
			"scale":[
				0.11125390976667404,
				0.11125390231609344,
				0.11125390976667404
			],
			"translation":[
				9.137964248657227,
				0,
				4.762251377105713
			]
		},
		{
			"name":"Fios.007",
			"rotation":[
				0,
				-0.23512130975723267,
				0,
				0.9719661474227905
			],
			"translation":[
				-0.2888922691345215,
				-0.02882557176053524,
				0.9339237213134766
			]
		},
		{
			"name":"B\u00e9zierCircle.007",
			"rotation":[
				0,
				-0.23512129485607147,
				0,
				0.9719661474227905
			],
			"scale":[
				0.11125390976667404,
				0.11125390231609344,
				0.11125390976667404
			],
			"translation":[
				9.137964248657227,
				-0.02882557176053524,
				5.778159141540527
			]
		},
		{
			"name":"Fios.008",
			"translation":[
				5.862765789031982,
				0,
				1.9596987962722778
			]
		},
		{
			"name":"B\u00e9zierCircle.008",
			"scale":[
				0.11125390231609344,
				0.11125390231609344,
				0.11125390231609344
			],
			"translation":[
				16.461456298828125,
				0,
				1.9596987962722778
			]
		},
		{
			"name":"Fios.009",
			"rotation":[
				0,
				-0.7071068286895752,
				0,
				0.7071068286895752
			],
			"translation":[
				-1.4262285232543945,
				0,
				1.7718982696533203
			]
		},
		{
			"name":"B\u00e9zierCircle.009",
			"rotation":[
				0,
				-0.7071068286895752,
				0,
				0.7071068286895752
			],
			"scale":[
				0.11125390231609344,
				0.11125390231609344,
				0.11125390231609344
			],
			"translation":[
				-1.3119127750396729,
				0,
				12.370588302612305
			]
		},
		{
			"name":"Fios.010",
			"rotation":[
				0,
				-0.7071068286895752,
				0,
				0.7071068286895752
			],
			"translation":[
				6.608537197113037,
				0,
				1.7718982696533203
			]
		},
		{
			"name":"B\u00e9zierCircle.010",
			"rotation":[
				0,
				-0.7071068286895752,
				0,
				0.7071068286895752
			],
			"scale":[
				0.11125390231609344,
				0.11125390231609344,
				0.11125390231609344
			],
			"translation":[
				6.72285270690918,
				0,
				12.370588302612305
			]
		},
		{
			"name":"Fios.011",
			"rotation":[
				0,
				-0.7071068286895752,
				0,
				0.7071068286895752
			],
			"translation":[
				8.519243240356445,
				0,
				1.7718982696533203
			]
		},
		{
			"name":"B\u00e9zierCircle.011",
			"rotation":[
				0,
				-0.7071068286895752,
				0,
				0.7071068286895752
			],
			"scale":[
				0.11125390231609344,
				0.11125390231609344,
				0.11125390231609344
			],
			"translation":[
				8.633559226989746,
				0,
				12.370588302612305
			]
		},
		{
			"name":"Fios.012",
			"rotation":[
				0,
				-0.7071068286895752,
				0,
				0.7071068286895752
			],
			"translation":[
				8.796867370605469,
				0,
				1.7718982696533203
			]
		},
		{
			"name":"B\u00e9zierCircle.012",
			"rotation":[
				0,
				-0.7071068286895752,
				0,
				0.7071068286895752
			],
			"scale":[
				0.11125390231609344,
				0.11125390231609344,
				0.11125390231609344
			],
			"translation":[
				8.91118335723877,
				0,
				12.370588302612305
			]
		},
		{
			"name":"Fios.013",
			"translation":[
				6.96803617477417,
				0,
				-2.0086913108825684
			]
		},
		{
			"name":"B\u00e9zierCircle.013",
			"scale":[
				0.11125390231609344,
				0.11125390231609344,
				0.11125390231609344
			],
			"translation":[
				17.566726684570312,
				0,
				-2.0086913108825684
			]
		},
		{
			"name":"Fios.014",
			"translation":[
				6.96803617477417,
				0,
				-3.0669288635253906
			]
		},
		{
			"name":"B\u00e9zierCircle.014",
			"scale":[
				0.11125390231609344,
				0.11125390231609344,
				0.11125390231609344
			],
			"translation":[
				17.566726684570312,
				0,
				-3.0669288635253906
			]
		},
		{
			"name":"B\u00e9zierCircle.015",
			"scale":[
				0.11125390231609344,
				0.11125390231609344,
				0.11125390231609344
			],
			"translation":[
				17.566726684570312,
				0,
				-4.085972309112549
			]
		},
		{
			"name":"Fios.015",
			"translation":[
				6.96803617477417,
				0,
				-4.164360046386719
			]
		},
		{
			"name":"B\u00e9zierCircle.016",
			"scale":[
				0.11125390231609344,
				0.11125390231609344,
				0.11125390231609344
			],
			"translation":[
				17.566726684570312,
				0,
				-3.0669288635253906
			]
		}
	],
	"animations":[
		{
			"channels":[
				{
					"sampler":0,
					"target":{
						"node":33,
						"path":"translation"
					}
				},
				{
					"sampler":1,
					"target":{
						"node":33,
						"path":"rotation"
					}
				},
				{
					"sampler":2,
					"target":{
						"node":33,
						"path":"scale"
					}
				}
			],
			"name":"Fios.015Action.001",
			"samplers":[
				{
					"input":7,
					"interpolation":"LINEAR",
					"output":8
				},
				{
					"input":7,
					"interpolation":"LINEAR",
					"output":9
				},
				{
					"input":7,
					"interpolation":"LINEAR",
					"output":10
				}
			]
		}
	],
	"materials":[
		{
			"doubleSided":true,
			"name":"Material.001",
			"pbrMetallicRoughness":{
				"baseColorFactor":[
					0.800000011920929,
					0.800000011920929,
					0.800000011920929,
					1
				],
				"metallicFactor":0,
				"roughnessFactor":0.5
			}
		},
		{
			"doubleSided":true,
			"name":"Material",
			"pbrMetallicRoughness":{
				"baseColorFactor":[
					0.800000011920929,
					0.800000011920929,
					0.800000011920929,
					1
				],
				"metallicFactor":0,
				"roughnessFactor":0.5
			}
		}
	],
	"meshes":[
		{
			"name":"Cube.001",
			"primitives":[
				{
					"attributes":{
						"POSITION":0,
						"NORMAL":1,
						"TEXCOORD_0":2
					},
					"indices":3,
					"material":0
				}
			]
		},
		{
			"name":"Cube",
			"primitives":[
				{
					"attributes":{
						"POSITION":4,
						"NORMAL":5,
						"TEXCOORD_0":6
					},
					"indices":3,
					"material":1
				}
			]
		}
	],
	"accessors":[
		{
			"bufferView":0,
			"componentType":5126,
			"count":5560,
			"max":[
				3.9989399909973145,
				0.050000011920928955,
				4.015125274658203
			],
			"min":[
				-3.9989399909973145,
				-0.050000011920928955,
				-4.015125274658203
			],
			"type":"VEC3"
		},
		{
			"bufferView":1,
			"componentType":5126,
			"count":5560,
			"type":"VEC3"
		},
		{
			"bufferView":2,
			"componentType":5126,
			"count":5560,
			"type":"VEC2"
		},
		{
			"bufferView":3,
			"componentType":5123,
			"count":11604,
			"type":"SCALAR"
		},
		{
			"bufferView":4,
			"componentType":5126,
			"count":5560,
			"max":[
				3.9989399909973145,
				0.050000011920928955,
				4.015125274658203
			],
			"min":[
				-3.9989399909973145,
				-0.050000011920928955,
				-4.015125274658203
			],
			"type":"VEC3"
		},
		{
			"bufferView":5,
			"componentType":5126,
			"count":5560,
			"type":"VEC3"
		},
		{
			"bufferView":6,
			"componentType":5126,
			"count":5560,
			"type":"VEC2"
		},
		{
			"bufferView":7,
			"componentType":5126,
			"count":25,
			"max":[
				1
			],
			"min":[
				0
			],
			"type":"SCALAR"
		},
		{
			"bufferView":8,
			"componentType":5126,
			"count":25,
			"type":"VEC3"
		},
		{
			"bufferView":9,
			"componentType":5126,
			"count":25,
			"type":"VEC4"
		},
		{
			"bufferView":10,
			"componentType":5126,
			"count":25,
			"type":"VEC3"
		}
	],
	"bufferViews":[
		{
			"buffer":0,
			"byteLength":66720,
			"byteOffset":0,
			"target":34962
		},
		{
			"buffer":0,
			"byteLength":66720,
			"byteOffset":66720,
			"target":34962
		},
		{
			"buffer":0,
			"byteLength":44480,
			"byteOffset":133440,
			"target":34962
		},
		{
			"buffer":0,
			"byteLength":23208,
			"byteOffset":177920,
			"target":34963
		},
		{
			"buffer":0,
			"byteLength":66720,
			"byteOffset":201128,
			"target":34962
		},
		{
			"buffer":0,
			"byteLength":66720,
			"byteOffset":267848,
			"target":34962
		},
		{
			"buffer":0,
			"byteLength":44480,
			"byteOffset":334568,
			"target":34962
		},
		{
			"buffer":0,
			"byteLength":100,
			"byteOffset":379048
		},
		{
			"buffer":0,
			"byteLength":300,
			"byteOffset":379148
		},
		{
			"buffer":0,
			"byteLength":400,
			"byteOffset":379448
		},
		{
			"buffer":0,
			"byteLength":300,
			"byteOffset":379848
		}
	],
	"buffers":[
		{
			"byteLength":380148,
			"uri":"Fiacao.bin"
		}
	]
}
